<svg width="560" height="400" xmlns="http://www.w3.org/2000/svg">
  <rect width="560" height="400" fill="#FAFAFA" rx="8"/>
  <text x="280" y="28" text-anchor="middle" font-family="system-ui,sans-serif" font-size="16" font-weight="bold" fill="#333">Goroutine vs Thread：轻量级的秘密</text>
  <line x1="280" y1="42" x2="280" y2="380" stroke="#CCC" stroke-dasharray="5,3"/>
  <text x="140" y="62" text-anchor="middle" font-size="13" font-weight="bold" fill="#E76F00">Java Thread</text>
  <g font-size="9" fill="#333">
    <rect x="60" y="75" width="50" height="55" fill="#FFF3E0" stroke="#E76F00" stroke-width="1.5" rx="4"/><text x="85" y="98" text-anchor="middle">Thread</text><text x="85" y="112" text-anchor="middle" font-size="8">1MB</text>
    <rect x="120" y="75" width="50" height="55" fill="#FFF3E0" stroke="#E76F00" stroke-width="1.5" rx="4"/><text x="145" y="98" text-anchor="middle">Thread</text><text x="145" y="112" text-anchor="middle" font-size="8">1MB</text>
    <rect x="180" y="75" width="50" height="55" fill="#FFF3E0" stroke="#E76F00" stroke-width="1.5" rx="4"/><text x="205" y="98" text-anchor="middle">Thread</text><text x="205" y="112" text-anchor="middle" font-size="8">1MB</text>
    <rect x="60" y="140" width="50" height="55" fill="#FFE0B2" stroke="#E76F00" stroke-width="1.5" rx="4"/><text x="85" y="163" text-anchor="middle">Thread</text><text x="85" y="177" text-anchor="middle" font-size="8">1MB</text>
    <rect x="120" y="140" width="50" height="55" fill="#FFE0B2" stroke="#E76F00" stroke-width="1.5" rx="4"/><text x="145" y="163" text-anchor="middle">Thread</text><text x="145" y="177" text-anchor="middle" font-size="8">1MB</text>
  </g>
  <text x="140" y="225" text-anchor="middle" font-size="12" fill="#E76F00">5个线程 = 5MB内存</text>
  <rect x="60" y="245" width="200" height="36" fill="#FFCC80" stroke="#E76F00" stroke-width="1.5" rx="5"/>
  <text x="160" y="268" text-anchor="middle" font-size="11" fill="#333">OS内核调度（上下文切换昂贵）</text>
  <text x="420" y="62" text-anchor="middle" font-size="13" font-weight="bold" fill="#00ADD8">Go Goroutine</text>
  <g font-size="8" fill="#333">
    <rect x="330" y="75" width="28" height="20" fill="#E0F7FA" stroke="#00ADD8" rx="3"/><text x="344" y="89" text-anchor="middle">G</text>
    <rect x="362" y="75" width="28" height="20" fill="#E0F7FA" stroke="#00ADD8" rx="3"/><text x="376" y="89" text-anchor="middle">G</text>
    <rect x="394" y="75" width="28" height="20" fill="#E0F7FA" stroke="#00ADD8" rx="3"/><text x="408" y="89" text-anchor="middle">G</text>
    <rect x="426" y="75" width="28" height="20" fill="#E0F7FA" stroke="#00ADD8" rx="3"/><text x="440" y="89" text-anchor="middle">G</text>
    <rect x="458" y="75" width="28" height="20" fill="#E0F7FA" stroke="#00ADD8" rx="3"/><text x="472" y="89" text-anchor="middle">G</text>
    <rect x="330" y="100" width="28" height="20" fill="#E0F7FA" stroke="#00ADD8" rx="3"/><text x="344" y="114" text-anchor="middle">G</text>
    <rect x="362" y="100" width="28" height="20" fill="#E0F7FA" stroke="#00ADD8" rx="3"/><text x="376" y="114" text-anchor="middle">G</text>
    <rect x="394" y="100" width="28" height="20" fill="#E0F7FA" stroke="#00ADD8" rx="3"/><text x="408" y="114" text-anchor="middle">G</text>
    <rect x="426" y="100" width="28" height="20" fill="#E0F7FA" stroke="#00ADD8" rx="3"/><text x="440" y="114" text-anchor="middle">G</text>
    <rect x="458" y="100" width="28" height="20" fill="#E0F7FA" stroke="#00ADD8" rx="3"/><text x="472" y="114" text-anchor="middle">G</text>
    <rect x="330" y="125" width="28" height="20" fill="#B2EBF2" stroke="#00ADD8" rx="3"/><text x="344" y="139" text-anchor="middle">G</text>
    <rect x="362" y="125" width="28" height="20" fill="#B2EBF2" stroke="#00ADD8" rx="3"/><text x="376" y="139" text-anchor="middle">G</text>
    <rect x="394" y="125" width="28" height="20" fill="#B2EBF2" stroke="#00ADD8" rx="3"/><text x="408" y="139" text-anchor="middle">G</text>
    <rect x="426" y="125" width="28" height="20" fill="#B2EBF2" stroke="#00ADD8" rx="3"/><text x="440" y="139" text-anchor="middle">G</text>
    <rect x="458" y="125" width="28" height="20" fill="#B2EBF2" stroke="#00ADD8" rx="3"/><text x="472" y="139" text-anchor="middle">G</text>
    <rect x="330" y="150" width="28" height="20" fill="#B2EBF2" stroke="#00ADD8" rx="3"/><text x="344" y="164" text-anchor="middle">G</text>
    <rect x="362" y="150" width="28" height="20" fill="#B2EBF2" stroke="#00ADD8" rx="3"/><text x="376" y="164" text-anchor="middle">G</text>
    <rect x="394" y="150" width="28" height="20" fill="#B2EBF2" stroke="#00ADD8" rx="3"/><text x="408" y="164" text-anchor="middle">G</text>
    <rect x="426" y="150" width="28" height="20" fill="#B2EBF2" stroke="#00ADD8" rx="3"/><text x="440" y="164" text-anchor="middle">G</text>
    <rect x="458" y="150" width="28" height="20" fill="#B2EBF2" stroke="#00ADD8" rx="3"/><text x="472" y="164" text-anchor="middle">G</text>
  </g>
  <text x="420" y="195" text-anchor="middle" font-size="9" fill="#00ADD8">每个G = 2KB栈</text>
  <text x="420" y="225" text-anchor="middle" font-size="12" fill="#00ADD8">20个Goroutine = 40KB内存</text>
  <rect x="330" y="245" width="200" height="36" fill="#80DEEA" stroke="#00ADD8" stroke-width="1.5" rx="5"/>
  <text x="430" y="268" text-anchor="middle" font-size="11" fill="#333">Go运行时调度（用户态切换）</text>
  <text x="280" y="330" text-anchor="middle" font-size="16" font-weight="bold" fill="#D32F2F">⚡ 500x lighter</text>
  <defs></defs>
</svg>
